 http://www.imdb.com/title/tt0327056/

Source: Mystic.River.2003.720p.BluRay.x264-MELiTE

Subs: Arabic, Croatian, Danish, Dutch, English, Farsi-Persian, French, Greek, Indonesian, Italian, Portuguese, Romanian, Servian, Slovenian, Spanish, Turkish and Vietnamese.

Sample and Screens included.

General
Complete name                    : Mystic River-720p MP4 AAC x264 BRRip 2003-CC.mp4
Format                           : MPEG-4
Format profile                   : Base Media
Codec ID                         : isom
File size                        : 2.39 GiB
Duration                         : 2h 17mn
Overall bit rate                 : 2 483 Kbps
Encoded date                     : UTC 2012-07-04 14:39:18

Video
ID                               : 1
Format                           : AVC
Format/Info                      : Advanced Video Codec
Format profile                   : High@L3.1
Format settings, CABAC           : Yes
Format settings, ReFrames        : 5 frames
Codec ID                         : avc1
Codec ID/Info                    : Advanced Video Coding
Duration                         : 2h 17mn
Bit rate mode                    : Variable
Bit rate                         : 2 105 Kbps
Maximum bit rate                 : 11.5 Mbps
Width                            : 1 280 pixels
Height                           : 528 pixels
Display aspect ratio             : 2.35:1
Frame rate mode                  : Variable
Frame rate                       : 23.976 fps
Minimum frame rate               : 15.873 fps
Maximum frame rate               : 24.390 fps
Resolution                       : 24 bits
Colorimetry                      : 4:2:0
Scan type                        : Progressive
Bits/(Pixel*Frame)               : 0.130
Stream size                      : 2.02 GiB (84%)
Writing library                  : x264 core 112

Audio
ID                               : 2
Format                           : AAC
Format/Info                      : Advanced Audio Codec
Format version                   : Version 4
Format profile                   : LC
Format settings, SBR             : No
Codec ID                         : 40
Duration                         : 2h 17mn
Bit rate mode                    : Variable
Bit rate                         : 384 Kbps
Maximum bit rate                 : 771 Kbps
Channel(s)                       : 6 channels
Channel positions                : Front: L C R, Rear: L R, LFE
Sampling rate                    : 48.0 KHz
Resolution                       : 16 bits
Stream size                      : 377 MiB (15%)
Language                         : English

Enjoy...

Requested by cmptrluvr's.